HIERARCHY
ROOT Hips
{
	OFFSET 0.00000 0.00000 0.00000
	CHANNELS 6 Xposition Yposition Zposition Yrotation Zrotation Xrotation 
	JOINT Lumbar
	{
		OFFSET 0 0 0
		CHANNELS 3 Zrotation Xrotation Yrotation
		JOINT Neck
		{
			OFFSET 0.00 0.2701 0.00
			CHANNELS 3 Zrotation Xrotation Yrotation
			End Site
			{
				OFFSET 0.00 0.1379 0.00
			}
		}
		JOINT RightShoulder
		{
			OFFSET 0.0119 0.2289 0.1181
			CHANNELS 3 Zrotation Xrotation Yrotation
			JOINT RightElbow
			{
				OFFSET 0.00 -0.1475 0.00
				CHANNELS 2 Zrotation Yrotation
				JOINT RightWrist
				{
					OFFSET 0.00 -0.1605 0.00
					CHANNELS 2 Zrotation Xrotation
					End Site
					{
						OFFSET 0.0040 -0.1068 0.0006
					}
				}
			}
		}
		JOINT LeftShoulder
		{
			OFFSET 0.0119 0.2289 -0.1181
			CHANNELS 3 Zrotation Xrotation Yrotation
			JOINT LeftElbow
			{
				OFFSET 0.00 -0.1475 0.00
				CHANNELS 2 Zrotation Yrotation
				JOINT LeftWrist
				{
					OFFSET 0.00 -0.1605 0.00
					CHANNELS 2 Zrotation Xrotation
					End Site
					{
						OFFSET 0.0040 -0.1068 -0.0006
					}
				}
			}
		}
	}
	JOINT RightHip
	{
		OFFSET 0.0316 -0.0424 0.0458
		CHANNELS 3 Zrotation Xrotation Yrotation
		JOINT RightKnee
		{
			OFFSET 0.00 -0.2438 0.00
			CHANNELS 1 Zrotation
			JOINT RightAnkle
			{
				OFFSET 0.00 -0.2449 0.00
				CHANNELS 3 Zrotation Xrotation Yrotation
				End Site
				{
					OFFSET 0.1237 -0.0542 0.0051
				}
			}
		}
	}
	JOINT LeftHip
	{
		OFFSET 0.0316 -0.0424 -0.0458
		CHANNELS 3 Zrotation Xrotation Yrotation
		JOINT LeftKnee
		{
			OFFSET 0.00 -0.2438 0.00
			CHANNELS 1 Zrotation
			JOINT LeftAnkle
			{
				OFFSET 0.00 -0.2449 0.00
				CHANNELS 3 Zrotation Xrotation Yrotation
				End Site
				{
					OFFSET 0.1237 -0.0542 -0.0051
				}
			}
		}
	}
}
MOTION
Frames: 35
Frame Time: 0.02
0 0.57926 -0 182.699 0 -2.9068 1.34061 1.70952 -4.00247 -32.90468 5.17621 2.32594 -0.41767 -68.57784 -66.41394 21.90437 78.05391 -17.5424 -2.91957 4.70002 62.61226 61.88045 20.6641 -75.59249 -22.91068 2.76149 -3.49535 3.4839 6.2146 -7.14936 -1.2769 -3.85923 -6.97737 -1.46749 3.45339 -1.34435 -7.46951 4.84484 0.96334 -2.69405
2e-05 0.57926 2e-05 182.69911 0 -2.90667 1.32455 1.70874 -3.99696 -32.90861 5.17193 2.32951 -0.36184 -68.5612 -66.36574 21.89476 77.98349 -17.51914 -2.9478 4.70525 62.60084 61.85468 20.68027 -75.51554 -22.89379 2.79253 -3.49264 3.48158 6.20886 -7.15243 -1.26829 -3.86199 -6.97277 -1.45788 3.44917 -1.36652 -7.48496 4.84862 0.96891 -2.68275
4e-05 0.57925 4e-05 182.69923 0 -2.90653 1.30851 1.7079 -3.99151 -32.91243 5.16783 2.33313 -0.30619 -68.54472 -66.3175 21.88522 77.91386 -17.49601 -2.97573 4.71026 62.58912 61.82896 20.69648 -75.44005 -22.8769 2.82331 -3.48994 3.47923 6.20321 -7.15552 -1.25971 -3.86473 -6.96823 -1.44827 3.44491 -1.38881 -7.50047 4.85244 0.97454 -2.67121
6e-05 0.57925 5e-05 182.69936 0 -2.90637 1.29248 1.70692 -3.9862 -32.9158 5.16426 2.33696 -0.25162 -68.52866 -66.26975 21.87579 77.84749 -17.47338 -3.00242 4.71458 62.5767 61.80324 20.71219 -75.37056 -22.86 2.85291 -3.48727 3.47677 6.19787 -7.15866 -1.25119 -3.86744 -6.96382 -1.43854 3.44047 -1.41168 -7.51633 4.85642 0.9803 -2.65877
8e-05 0.57924 7e-05 182.69943 0 -2.90635 1.27648 1.70678 -3.98007 -32.92153 5.1577 2.33965 -0.19241 -68.51028 -66.22076 21.86562 77.7648 -17.44839 -3.03526 4.72269 62.56869 61.77759 20.72956 -75.27037 -22.84335 2.88825 -3.48449 3.47491 6.19089 -7.16144 -1.24242 -3.87032 -6.95863 -1.42941 3.43702 -1.43133 -7.53031 4.85952 0.98518 -2.65131
0.0001 0.57923 9e-05 182.69962 0 -2.90602 1.26036 1.70482 -3.97572 -32.92228 5.1576 2.34474 -0.14236 -68.49691 -66.17352 21.85714 77.71607 -17.42822 -3.05536 4.72271 62.5509 61.75177 20.74404 -75.2345 -22.82604 2.91177 -3.48193 3.47175 6.18742 -7.16503 -1.23415 -3.87285 -6.95516 -1.41902 3.43143 -1.45787 -7.54829 4.8645 0.99203 -2.63318
9e-05 0.57923 0.00015 182.70032 0 -2.90476 1.24422 1.69791 -3.97593 -32.9085 5.17473 2.35686 -0.12286 -68.49665 -66.1377 21.85265 77.76866 -17.42289 -3.03698 4.70016 62.5085 61.72485 20.74527 -75.38817 -22.80767 2.899 -3.48006 3.46517 6.19356 -7.17057 -1.22733 -3.87434 -6.95616 -1.40473 3.42014 -1.50411 -7.57793 4.87467 1.00386 -2.58527
8e-05 0.57922 0.00021 182.7011 0 -2.9032 1.22788 1.68915 -3.97798 -32.88982 5.19848 2.37133 -0.11154 -68.5015 -66.1023 21.85007 77.85432 -17.42218 -3.00625 4.66951 62.45579 61.69767 20.7446 -75.60506 -22.78851 2.87494 -3.47838 3.45721 6.20327 -7.177 -1.22098 -3.87549 -6.95895 -1.38922 3.40662 -1.55725 -7.61154 4.88674 1.0178 -2.5266
7e-05 0.57921 0.00027 182.70172 0 -2.90183 1.21141 1.68119 -3.97942 -32.87388 5.21961 2.38446 -0.09313 -68.50457 -66.06254 21.84696 77.9199 -17.41831 -2.9834 4.64261 62.40611 61.67119 20.74813 -75.78508 -22.7691 2.8584 -3.47656 3.44975 6.21142 -7.18323 -1.21436 -3.87684 -6.96113 -1.37453 3.39398 -1.60681 -7.64301 4.89794 1.03111 -2.47302
6e-05 0.5792 0.00033 182.7029 0 -2.90021 1.19588 1.67342 -3.97991 -32.85581 5.23918 2.39872 -0.08927 -68.50565 -66.04084 21.84211 78.0064 -17.41875 -2.95132 4.61521 62.36324 61.64294 20.73734 -75.99818 -22.75203 2.83181 -3.475 3.44287 6.21933 -7.18859 -1.20801 -3.87801 -6.96248 -1.35872 3.38195 -1.65816 -7.6759 4.90915 1.04302 -2.41862
5e-05 0.57919 0.0004 182.70291 0 -2.89906 1.17833 1.66478 -3.98279 -32.84096 5.26345 2.41119 -0.05666 -68.5117 -65.98106 21.84172 78.0577 -17.41152 -2.93509 4.58721 62.304 61.61747 20.75622 -76.15894 -22.73022 2.82344 -3.47294 3.43443 6.22859 -7.19597 -1.2012 -3.87948 -6.96596 -1.34495 3.36808 -1.70751 -7.70679 4.92079 1.05837 -2.36332
3e-05 0.57918 0.00055 182.69968 0 -2.89924 1.15552 1.65451 -3.99207 -32.83661 5.30028 2.41824 0.05427 -68.53359 -65.82058 21.84994 77.99969 -17.38004 -2.9696 4.55713 62.19976 61.60712 20.85478 -76.14592 -22.69241 2.86836 -3.46948 3.4223 6.24065 -7.20869 -1.19287 -3.88174 -6.97497 -1.33715 3.35006 -1.74904 -7.73118 4.93332 1.0825 -2.3085
0 0.57917 0.00073 182.69523 0 -2.89994 1.13063 1.64336 -4.00363 -32.83554 5.3414 2.4234 0.19508 -68.55969 -65.62078 21.86319 77.90617 -17.34091 -3.01984 4.5272 62.07988 61.59823 20.98371 -76.08025 -22.65017 2.93184 -3.46548 3.4086 6.25399 -7.22344 -1.18408 -3.88433 -6.98603 -1.33139 3.33019 -1.78846 -7.75348 4.9462 1.1101 -2.25302
-2e-05 0.57916 0.00089 182.69137 0 -2.90044 1.10657 1.63244 -4.014 -32.83277 5.37977 2.42935 0.32412 -68.58168 -65.43618 21.87627 77.83117 -17.30673 -3.06018 4.49878 61.96865 61.58378 21.10062 -76.04821 -22.61229 2.98684 -3.46172 3.39548 6.26675 -7.23725 -1.17559 -3.88686 -6.99614 -1.32468 3.31094 -1.82926 -7.77668 4.95878 1.13621 -2.19769
-5e-05 0.57916 0.00105 182.68751 0 -2.90072 1.08307 1.62221 -4.02512 -32.83092 5.4217 2.4356 0.44489 -68.61314 -65.26344 21.88049 77.74602 -17.26703 -3.11136 4.46334 61.85042 61.58983 21.21023 -75.97892 -22.56552 3.04216 -3.45807 3.38293 6.27953 -7.2511 -1.16672 -3.88901 -7.00649 -1.31814 3.29259 -1.86849 -7.80003 4.97195 1.16189 -2.14282
-8e-05 0.57915 0.00123 182.68315 0 -2.90163 1.05783 1.61029 -4.03514 -32.82774 5.4572 2.44081 0.5905 -68.6258 -65.05595 21.90431 77.67471 -17.23629 -3.1443 4.44276 61.74333 61.55377 21.34192 -75.97198 -22.53494 3.10074 -3.45397 3.36879 6.29266 -7.2654 -1.15853 -3.892 -7.01668 -1.31161 3.2719 -1.91043 -7.82278 4.98403 1.1894 -2.0867
-0.0001 0.57914 0.00147 182.6794 0 -2.90391 1.02894 1.59456 -4.04223 -32.82216 5.47342 2.44309 0.79434 -68.58531 -64.76736 21.98191 77.63681 -17.2381 -3.11924 4.46229 61.66955 61.39881 21.53053 -76.16578 -22.56048 3.16915 -3.44953 3.35092 6.3054 -7.27997 -1.15226 -3.89744 -7.02675 -1.30569 3.24562 -1.95996 -7.84196 4.99232 1.21985 -2.02961
-0.00011 0.57912 0.00173 182.67477 0 -2.90686 0.99823 1.57701 -4.04805 -32.81469 5.48312 2.44451 1.02306 -68.52572 -64.44366 22.07925 77.61638 -17.24822 -3.07611 4.49691 61.60767 61.20172 21.73987 -76.42068 -22.60013 3.23924 -3.44447 3.33145 6.31868 -7.2951 -1.14669 -3.90367 -7.03638 -1.29952 3.21695 -2.01221 -7.86102 4.9996 1.25222 -1.97093
-0.00013 0.57911 0.00199 182.66953 0 -2.90966 0.96796 1.55989 -4.05397 -32.80683 5.49608 2.4466 1.24203 -68.47502 -64.13328 22.1665 77.59668 -17.25042 -3.04372 4.5253 61.54139 61.02555 21.93732 -76.63721 -22.62709 3.30513 -3.43929 3.31256 6.33236 -7.31018 -1.14087 -3.9094 -7.04572 -1.29272 3.18913 -2.06363 -7.88174 5.00778 1.28454 -1.91144
-0.00015 0.57909 0.00223 182.66884 0 -2.91181 0.93933 1.54455 -4.06182 -32.80462 5.50784 2.44727 1.4542 -68.42374 -63.83484 22.25717 77.53927 -17.26922 -3.00095 4.55126 61.47087 60.84244 22.14553 -76.89753 -22.68208 3.38625 -3.43603 3.29431 6.34323 -7.3241 -1.13482 -3.91574 -7.05737 -1.28904 3.16232 -2.11381 -7.8957 5.01417 1.3136 -1.85824
-0.00016 0.57908 0.0025 182.65804 0 -2.91548 0.90681 1.52493 -4.0655 -32.78979 5.52062 2.45091 1.68763 -68.36892 -63.50095 22.34719 77.56488 -17.25629 -2.97562 4.58557 61.41151 60.66314 22.33673 -77.0808 -22.67999 3.43567 -3.42832 3.27427 6.36024 -7.34099 -1.12932 -3.92095 -7.06386 -1.27889 3.13277 -2.16657 -7.92359 5.02397 1.34975 -1.79174
-0.00015 0.57907 0.00283 182.62343 0 -2.92323 0.86465 1.49509 -4.05641 -32.74369 5.53658 2.46133 1.96111 -68.31013 -63.10001 22.41519 77.81739 -17.14708 -3.00023 4.64208 61.38604 60.50947 22.4684 -77.04586 -22.53508 3.39839 -3.41124 3.25047 6.39257 -7.3622 -1.12612 -3.92335 -7.05807 -1.24983 3.0969 -2.23151 -7.99135 5.0439 1.40599 -1.68754
-0.00011 0.57906 0.00318 182.57791 0 -2.93249 0.81854 1.46076 -4.04346 -32.68434 5.55405 2.47505 2.258 -68.24805 -62.65959 22.48491 78.15305 -17.00693 -3.04345 4.70617 61.37023 60.35974 22.58349 -76.93012 -22.32896 3.32889 -3.38921 3.22478 6.43138 -7.38703 -1.1233 -3.92448 -7.04676 -1.21448 3.05823 -2.29781 -8.07286 5.0672 1.4691 -1.57032
-9e-05 0.57905 0.00352 182.53488 0 -2.94101 0.77382 1.42777 -4.03323 -32.62903 5.57151 2.48835 2.55142 -68.18696 -62.22417 22.56367 78.44903 -16.88534 -3.07981 4.76464 61.34634 60.20568 22.7109 -76.84497 -22.13874 3.27313 -3.36764 3.19944 6.46813 -7.4127 -1.11966 -3.92584 -7.03674 -1.1827 3.02041 -2.35985 -8.14725 5.08864 1.52845 -1.45991
-7e-05 0.57904 0.00385 182.50243 0 -2.94973 0.73075 1.39783 -4.01873 -32.58211 5.58563 2.49717 2.81272 -68.12806 -61.84646 22.60083 78.75196 -16.74505 -3.10881 4.83187 61.33901 60.06278 22.81878 -76.78634 -21.99881 3.22093 -3.35358 3.1762 6.50095 -7.42808 -1.11869 -3.92865 -7.03181 -1.14782 2.98429 -2.43772 -8.22548 5.1114 1.59064 -1.34548
-3e-05 0.57904 0.00422 182.44513 0 -2.95845 0.68334 1.3603 -4.0124 -32.51451 5.60746 2.51598 3.14961 -68.06318 -61.33424 22.72585 79.06197 -16.63622 -3.15781 4.88362 61.2986 59.8957 22.96321 -76.65432 -21.74009 3.15403 -3.32274 3.14815 6.54374 -7.46554 -1.11236 -3.92817 -7.01501 -1.11802 2.94402 -2.48248 -8.29876 5.13224 1.6484 -1.23659
5e-05 0.57904 0.0047 182.32345 0 -2.96624 0.62475 1.30443 -4.02834 -32.39362 5.64758 2.56283 3.65977 -67.9895 -60.50536 23.08437 79.35326 -16.62189 -3.25737 4.88067 61.17034 59.68168 23.2123 -76.32325 -21.16286 3.05126 -3.24635 3.10743 6.61047 -7.56468 -1.09002 -3.91858 -6.96633 -1.1029 2.89282 -2.43889 -8.35672 5.14689 1.69329 -1.14404
0.00014 0.57905 0.00522 182.17673 0 -2.97409 0.56201 1.24077 -4.05291 -32.25226 5.69591 2.61943 4.25059 -67.90827 -59.53352 23.53313 79.65163 -16.64001 -3.37647 4.8637 61.00709 59.43941 23.49911 -75.92354 -20.46945 2.93549 -3.1533 3.06192 6.68741 -7.68559 -1.06252 -3.90575 -6.90591 -1.09332 2.83758 -2.3612 -8.40888 5.15952 1.7333 -1.05787
0.00022 0.57906 0.00573 182.04057 0 -2.98227 0.50128 1.17974 -4.07434 -32.1199 5.74225 2.67071 4.82387 -67.82663 -58.59862 23.94574 79.95901 -16.64353 -3.4869 4.85968 60.85622 59.19677 23.76823 -75.56595 -19.83236 2.82761 -3.06815 3.01854 6.76095 -7.79547 -1.03809 -3.89462 -6.85124 -1.08177 2.7843 -2.29699 -8.46259 5.17309 1.77486 -0.97022
0.0003 0.57907 0.00622 181.90793 0 -2.98896 0.43979 1.12254 -4.09227 -31.98838 5.78134 2.72572 5.31733 -67.76292 -57.78352 24.33648 80.21953 -16.64638 -3.59734 4.82812 60.72142 59.01045 24.03739 -75.16069 -19.17702 2.70979 -2.98151 2.97535 6.82934 -7.91033 -1.0105 -3.88256 -6.79489 -1.06757 2.7304 -2.2417 -8.52143 5.18663 1.81942 -0.87625
0.0004 0.57908 0.00675 181.7616 0 -2.99882 0.37905 1.05539 -4.11965 -31.8504 5.83741 2.77542 5.99584 -67.6578 -56.68186 24.79596 80.57592 -16.65744 -3.71182 4.85053 60.54366 58.69951 24.31778 -74.83793 -18.53447 2.61055 -2.89399 2.93059 6.91097 -8.01987 -0.98839 -3.87157 -6.739 -1.0604 2.67685 -2.1593 -8.56792 5.19975 1.85653 -0.79696
0.00051 0.57908 0.0074 181.58809 0 -3.01687 0.32053 0.96414 -4.17052 -31.69948 5.93893 2.80657 7.16564 -67.4595 -54.85468 25.40755 81.2155 -16.69425 -3.83583 5.02505 60.26424 58.0558 24.60206 -74.77469 -17.94273 2.56118 -2.80885 2.88304 7.02559 -8.11027 -0.98139 -3.8655 -6.69002 -1.07042 2.62553 -2.01363 -8.58277 5.21188 1.87397 -0.75815
0.00063 0.57907 0.0081 181.40075 0 -3.03823 0.26304 0.86286 -4.23061 -31.54273 6.05716 2.83236 8.51832 -67.2158 -52.73846 26.08785 81.94747 -16.73616 -3.96268 5.2544 59.94088 57.28677 24.89996 -74.79549 -17.37078 2.53182 -2.72315 2.83402 7.15349 -8.19455 -0.9803 -3.8604 -6.64138 -1.0875 2.57467 -1.84113 -8.58515 5.2237 1.88412 -0.73366
0.00075 0.57907 0.00877 181.21702 0 -3.05841 0.20574 0.76523 -4.28697 -31.38889 6.16731 2.86148 9.78772 -66.9807 -50.73464 26.74726 82.62301 -16.76881 -4.08592 5.45885 59.63241 56.57221 25.20318 -74.76708 -16.79831 2.49665 -2.63745 2.78544 7.27583 -8.28087 -0.97734 -3.85406 -6.59083 -1.10197 2.52344 -1.67894 -8.59251 5.23584 1.89776 -0.70169
0.00086 0.57907 0.00944 181.04426 0 -3.07716 0.14571 0.67126 -4.34212 -31.23367 6.27969 2.88689 11.06255 -66.79773 -48.80598 27.36726 83.35841 -16.83243 -4.21916 5.66272 59.34531 55.86723 25.4583 -74.77845 -16.18519 2.44773 -2.55284 2.73761 7.39599 -8.37048 -0.9708 -3.85096 -6.5474 -1.11417 2.47275 -1.52396 -8.60253 5.24712 1.91042 -0.67406
